HIERARCHY
ROOT Hips
{
	OFFSET -0.001795 -0.223333 0.028219
	CHANNELS 6 Xposition Yposition Zposition Zrotation Yrotation Xrotation 
	JOINT LeftUpLeg
	{
		OFFSET 0.069520 -0.091406 -0.006815
		CHANNELS 3 Zrotation Yrotation Xrotation
		JOINT LeftLeg
		{
			OFFSET 0.034277 -0.375199 -0.004496
			CHANNELS 3 Zrotation Yrotation Xrotation
			JOINT LeftFoot
			{
				OFFSET -0.013596 -0.397961 -0.043693
				CHANNELS 3 Zrotation Yrotation Xrotation
				JOINT LeftToe
				{
					OFFSET 0.026358 -0.055791 0.119288
					CHANNELS 3 Zrotation Yrotation Xrotation
					End Site
					{
						OFFSET 0.000000 0.000000 0.000000
					}
				}
			}
		}
	}
	JOINT RightUpLeg
	{
		OFFSET -0.067670 -0.090522 -0.004320
		CHANNELS 3 Zrotation Yrotation Xrotation
		JOINT RightLeg
		{
			OFFSET -0.038290 -0.382569 -0.008850
			CHANNELS 3 Zrotation Yrotation Xrotation
			JOINT RightFoot
			{
				OFFSET 0.015774 -0.398415 -0.042312
				CHANNELS 3 Zrotation Yrotation Xrotation
				JOINT RightToe
				{
					OFFSET -0.025372 -0.048144 0.123348
					CHANNELS 3 Zrotation Yrotation Xrotation
					End Site
					{
						OFFSET 0.000000 0.000000 0.000000
					}
				}
			}
		}
	}
	JOINT Spine
	{
		OFFSET -0.002533 0.108963 -0.026696
		CHANNELS 3 Zrotation Yrotation Xrotation
		JOINT Spine1
		{
			OFFSET 0.005487 0.135180 0.001092
			CHANNELS 3 Zrotation Yrotation Xrotation
			JOINT Spine2
			{
				OFFSET 0.001457 0.052922 0.025425
				CHANNELS 3 Zrotation Yrotation Xrotation
				JOINT Neck
				{
					OFFSET -0.002778 0.213870 -0.042857
					CHANNELS 3 Zrotation Yrotation Xrotation
					JOINT Head
					{
						OFFSET 0.005152 0.064970 0.051349
						CHANNELS 3 Zrotation Yrotation Xrotation
						End Site
						{
							OFFSET 0.000000 0.000000 0.000000
						}
					}
				}
				JOINT LeftShoulder
				{
					OFFSET 0.078845 0.121749 -0.034090
					CHANNELS 3 Zrotation Yrotation Xrotation
					JOINT LeftArm
					{
						OFFSET 0.090977 0.030469 -0.008868
						CHANNELS 3 Zrotation Yrotation Xrotation
						JOINT LeftForeArm
						{
							OFFSET 0.259612 -0.012772 -0.027456
							CHANNELS 3 Zrotation Yrotation Xrotation
							JOINT LeftHand
							{
								OFFSET 0.249234 0.008986 -0.001171
								CHANNELS 3 Zrotation Yrotation Xrotation
								End Site
								{
									OFFSET 0.000000 0.000000 0.000000
								}
							}
						}
					}
				}
				JOINT RightShoulder
				{
					OFFSET -0.081759 0.118833 -0.038615
					CHANNELS 3 Zrotation Yrotation Xrotation
					JOINT RightArm
					{
						OFFSET -0.096012 0.032551 -0.009143
						CHANNELS 3 Zrotation Yrotation Xrotation
						JOINT RightForeArm
						{
							OFFSET -0.253742 -0.013329 -0.021401
							CHANNELS 3 Zrotation Yrotation Xrotation
							JOINT RightHand
							{
								OFFSET -0.255298 0.007772 -0.005559
								CHANNELS 3 Zrotation Yrotation Xrotation
								End Site
								{
									OFFSET 0.000000 0.000000 0.000000
								}
							}
						}
					}
				}
			}
		}
	}
}
MOTION
Frames: 16
Frame Time: 0.050000
0.218592 0.932775 -0.226681 -0.826022 38.258109 1.947021 3.959758 -0.957822 -10.168384 -4.194971 -0.030260 3.411049 -7.054196 -7.978950 6.278160 0.000000 0.000000 0.000000 -2.749060 0.244083 -9.253745 0.482401 -0.331089 7.106019 -3.722060 -8.155852 6.584801 0.000000 0.000000 0.000000 0.049285 -1.700833 16.924634 -2.028959 0.521143 1.652928 2.183364 3.588671 9.404006 3.585705 1.526353 -17.358332 0.000000 0.000000 0.000000 -22.064961 -21.471203 2.476341 -52.424701 -26.034368 6.566654 -2.602803 -38.295297 0.098714 0.000000 0.000000 0.000000 21.021872 16.730029 14.701894 57.107281 34.592500 10.545001 -12.681850 73.125221 0.629134 0.000000 0.000000 0.000000 
0.216770 0.932929 -0.228329 -0.795484 38.441192 2.071212 4.087507 -0.973873 -10.289906 -4.413335 -0.020605 3.073933 -7.267198 -7.983641 6.658906 0.000000 0.000000 0.000000 -2.773311 0.240115 -9.402424 0.533190 -0.336203 6.915228 -3.806216 -8.280800 6.788394 0.000000 0.000000 0.000000 0.104739 -1.723865 16.963798 -1.957958 0.539479 1.296616 2.186084 3.420399 9.404061 3.042370 1.858267 -17.392546 0.000000 0.000000 0.000000 -22.269868 -21.353364 2.368752 -52.196458 -25.523885 6.361471 -3.263479 -38.910817 0.305526 0.000000 0.000000 0.000000 20.757094 16.661648 14.563788 56.853952 34.275938 10.326358 -12.990249 71.597418 0.302344 0.000000 0.000000 0.000000 
0.215096 0.933126 -0.229781 -0.741254 38.802340 2.227009 4.162246 -0.977921 -10.282616 -4.584876 -0.014059 2.464447 -7.609515 -8.119144 7.133063 0.000000 0.000000 0.000000 -2.732002 0.240088 -9.423153 0.439823 -0.299958 6.537780 -3.976253 -8.572817 7.034151 0.000000 0.000000 0.000000 0.003894 -1.677578 16.735501 -1.745368 0.397795 1.536701 2.298838 3.248501 8.971529 2.931182 1.974209 -17.776986 0.000000 0.000000 0.000000 -22.507471 -21.291613 2.295019 -52.328654 -24.754138 6.118512 -4.311692 -39.248866 0.655064 0.000000 0.000000 0.000000 20.732855 16.710084 14.564030 56.050511 34.285648 10.103793 -14.164066 69.491797 -0.717057 0.000000 0.000000 0.000000 
0.213549 0.933185 -0.231091 -0.682089 38.923671 2.223185 4.307777 -0.958286 -10.036189 -4.891365 -0.007597 1.826552 -7.821858 -8.100015 7.521268 0.000000 0.000000 0.000000 -2.932960 0.203739 -9.336498 0.757513 -0.364813 6.249118 -4.006505 -8.607315 7.164786 0.000000 0.000000 0.000000 0.000317 -1.675890 16.717623 -1.582046 0.363381 1.274004 2.288380 3.236738 9.063939 2.628835 2.260398 -18.372778 0.000000 0.000000 0.000000 -22.267390 -21.238788 2.257894 -52.441274 -24.632899 6.043132 -5.299940 -39.392109 0.974984 0.000000 0.000000 0.000000 20.370277 16.971617 14.618764 55.534459 34.647731 10.189539 -14.283045 67.253419 -0.937751 0.000000 0.000000 0.000000 
0.212107 0.932997 -0.232409 -0.888067 38.815680 2.211615 4.708678 -0.963345 -9.981145 -5.231342 -0.004063 1.276489 -7.824894 -7.910671 7.719100 0.000000 0.000000 0.000000 -2.788705 0.231523 -9.296932 0.855070 -0.356822 5.677755 -3.982968 -8.525688 7.322205 0.000000 0.000000 0.000000 0.004466 -1.632389 16.462457 -1.496144 0.290164 1.496548 2.526691 3.426580 8.805051 2.489033 2.359058 -18.477287 0.000000 0.000000 0.000000 -22.381219 -21.422516 2.317329 -52.218775 -24.208878 5.892024 -5.422773 -39.206951 1.015273 0.000000 0.000000 0.000000 20.349701 17.555954 14.977580 54.617675 35.237770 10.232444 -14.099029 65.232315 -1.026091 0.000000 0.000000 0.000000 
0.210768 0.932392 -0.233853 -0.949985 38.483325 2.188217 4.965167 -0.948549 -9.759548 -5.546710 -0.003132 0.683265 -7.689580 -7.615763 7.775275 0.000000 0.000000 0.000000 -2.962339 0.212009 -9.197386 1.276729 -0.426197 5.142175 -3.826842 -8.226062 7.275724 0.000000 0.000000 0.000000 0.149714 -1.627987 16.341679 -1.768652 0.370168 1.814728 2.768554 3.464912 8.370640 2.210473 2.540627 -18.893607 0.000000 0.000000 0.000000 -22.504711 -21.183406 2.245064 -52.090483 -23.843323 5.768952 -5.787982 -39.083512 1.154383 0.000000 0.000000 0.000000 20.509227 18.205465 15.358474 53.735058 35.801145 10.246090 -13.401987 64.129216 -0.807052 0.000000 0.000000 0.000000 
0.209575 0.931745 -0.235464 -1.124882 38.045539 2.143754 5.293437 -0.927099 -9.396676 -5.827452 -0.012870 -0.235274 -7.521973 -7.240458 7.851391 0.000000 0.000000 0.000000 -2.906167 0.230714 -9.156889 1.442224 -0.433132 4.586374 -3.655615 -7.879492 7.267003 0.000000 0.000000 0.000000 0.109867 -1.598062 16.245424 -1.685319 0.411562 1.354278 2.929868 3.581144 8.665910 1.890184 2.797669 -19.374540 0.000000 0.000000 0.000000 -22.678114 -20.995297 2.103860 -51.823144 -23.319115 5.526610 -5.642995 -38.558510 1.116276 0.000000 0.000000 0.000000 20.739024 18.582278 15.703890 53.098173 36.396367 10.285399 -12.001981 63.426866 -0.057752 0.000000 0.000000 0.000000 
0.208522 0.931436 -0.237195 -1.380935 37.883934 2.144597 5.605753 -0.933754 -9.335281 -5.983492 -0.028112 -0.868844 -7.484065 -7.031422 8.000706 0.000000 0.000000 0.000000 -2.857365 0.246753 -9.416105 1.719738 -0.489150 4.449246 -3.592617 -7.719507 7.400536 0.000000 0.000000 0.000000 0.417473 -1.620211 16.104048 -1.913039 0.543573 1.156268 3.221403 3.221621 8.618761 1.309117 3.090751 -19.515005 0.000000 0.000000 0.000000 -22.796583 -20.725700 2.120279 -51.077780 -22.749547 5.196194 -6.040930 -38.101329 1.329719 0.000000 0.000000 0.000000 21.106376 18.920780 15.931981 52.401387 36.627287 10.116062 -10.649552 63.583054 0.649070 0.000000 0.000000 0.000000 
0.207788 0.931208 -0.238891 -1.546009 37.455684 2.009973 5.735336 -0.916549 -9.095800 -5.970323 -0.032488 -1.337719 -7.314001 -6.711561 8.021676 0.000000 0.000000 0.000000 -2.738310 0.272604 -9.322307 1.720392 -0.465202 4.021993 -3.428557 -7.369792 7.522958 0.000000 0.000000 0.000000 0.354122 -1.614956 16.191281 -1.934350 0.576020 1.054355 3.381047 3.397400 8.615830 1.293102 3.143242 -19.906687 0.000000 0.000000 0.000000 -22.532267 -20.506119 2.060968 -50.741191 -22.409303 4.992993 -6.305853 -37.788323 1.417552 0.000000 0.000000 0.000000 21.117258 18.826871 15.868074 52.555223 36.973272 10.343843 -10.341675 63.891031 0.885086 0.000000 0.000000 0.000000 
0.207391 0.931050 -0.240412 -1.703492 37.143799 1.896830 5.788158 -0.901612 -8.912917 -5.858804 -0.034359 -1.721907 -7.194324 -6.493728 8.030100 0.000000 0.000000 0.000000 -2.663658 0.291222 -9.385167 1.766922 -0.466990 3.917111 -3.304663 -7.106394 7.620250 0.000000 0.000000 0.000000 0.427359 -1.580237 15.958054 -1.927807 0.600461 0.897633 3.482333 3.256698 8.782012 1.331402 3.102666 -19.944176 0.000000 0.000000 0.000000 -22.266047 -20.219685 2.078507 -50.264976 -21.823112 4.616828 -7.204648 -38.068694 1.773922 0.000000 0.000000 0.000000 21.217308 18.857565 15.843230 52.407904 36.612595 10.079976 -10.159277 64.916781 1.044169 0.000000 0.000000 0.000000 
0.207457 0.930802 -0.241765 -1.755803 36.737614 1.876505 5.818090 -0.885021 -8.711531 -5.893509 -0.040574 -2.126105 -7.023375 -6.192828 8.035555 0.000000 0.000000 0.000000 -2.651625 0.302850 -9.455092 1.735282 -0.449418 3.797131 -3.143706 -6.780665 7.644042 0.000000 0.000000 0.000000 0.454989 -1.536821 15.714282 -1.874048 0.595996 0.798568 3.583627 3.298403 8.762120 1.442219 3.022176 -19.914090 0.000000 0.000000 0.000000 -22.152034 -19.877455 1.969872 -49.753057 -20.879473 4.168772 -8.569795 -38.874677 2.271997 0.000000 0.000000 0.000000 21.694371 18.449258 15.745510 52.452827 35.994345 9.690090 -9.473504 65.830889 1.586658 0.000000 0.000000 0.000000 
0.207879 0.930473 -0.242995 -1.790185 36.522085 1.891838 5.647960 -0.863145 -8.526952 -5.646456 -0.043807 -2.554580 -6.939261 -6.083197 7.990798 0.000000 0.000000 0.000000 -2.642288 0.307934 -9.311140 1.655158 -0.412465 3.323830 -3.064460 -6.615046 7.708871 0.000000 0.000000 0.000000 0.300285 -1.437770 15.255831 -1.610605 0.450363 1.006588 3.597063 3.074523 8.460437 1.465699 2.943643 -19.790019 0.000000 0.000000 0.000000 -22.277362 -19.343425 1.789279 -49.111862 -19.779018 3.690932 -10.114368 -40.055760 2.900638 0.000000 0.000000 0.000000 22.397141 18.212065 15.757863 52.308254 34.703058 8.890596 -8.067433 67.087676 2.548228 0.000000 0.000000 0.000000 
0.208588 0.930276 -0.244154 -1.719950 36.387225 1.830367 5.411669 -0.841871 -8.391501 -5.486304 -0.038794 -2.615557 -6.877293 -6.046103 7.908207 0.000000 0.000000 0.000000 -2.802998 0.285652 -9.354710 1.683301 -0.422855 3.515274 -2.997091 -6.489167 7.649762 0.000000 0.000000 0.000000 0.274197 -1.372039 14.874969 -1.508171 0.437655 0.788219 3.735423 2.993393 8.615529 1.649195 2.821168 -19.645261 0.000000 0.000000 0.000000 -22.240128 -18.909011 1.590245 -49.096225 -19.088726 3.375995 -12.378033 -41.791706 3.813208 0.000000 0.000000 0.000000 22.551516 17.363236 15.262253 52.399315 33.458276 8.236409 -6.479834 67.858741 3.755042 0.000000 0.000000 0.000000 
0.209442 0.929938 -0.245298 -1.688511 36.619638 1.788869 5.020359 -0.817679 -8.252763 -5.039393 -0.038781 -2.844618 -7.001707 -6.309577 7.837202 0.000000 0.000000 0.000000 -2.848020 0.274010 -9.549502 1.535796 -0.409909 4.000177 -3.094360 -6.694701 7.523021 0.000000 0.000000 0.000000 0.243084 -1.304431 14.424358 -1.061600 0.245665 0.699995 3.592767 2.514000 8.934208 1.484377 2.864852 -19.408484 0.000000 0.000000 0.000000 -21.786909 -18.338685 1.443073 -49.175820 -18.673472 3.091939 -15.515380 -44.236775 5.216633 0.000000 0.000000 0.000000 22.858062 16.828070 14.990765 52.605198 32.205141 7.580253 -5.441529 67.861138 4.483821 0.000000 0.000000 0.000000 
0.210188 0.929528 -0.246553 -1.698019 36.758567 1.760736 4.880085 -0.807389 -8.183869 -4.958678 -0.045263 -3.027879 -7.058241 -6.441122 7.795958 0.000000 0.000000 0.000000 -2.928201 0.258696 -9.647855 1.523377 -0.415805 4.192221 -3.147251 -6.809267 7.453751 0.000000 0.000000 0.000000 0.360574 -1.263883 14.026616 -0.862963 0.174492 0.561256 3.716073 2.283421 9.231534 1.552927 2.782820 -19.090422 0.000000 0.000000 0.000000 -21.916253 -18.291864 1.425778 -48.733327 -18.098352 2.836971 -18.635375 -47.086507 6.830306 0.000000 0.000000 0.000000 23.004520 16.241680 14.656987 52.637929 30.998442 6.931803 -5.131876 67.373845 4.658757 0.000000 0.000000 0.000000 
0.210709 0.929093 -0.248049 -1.671992 36.851634 1.803740 4.779569 -0.818423 -8.373009 -4.989425 -0.042775 -2.878191 -7.050621 -6.518862 7.700740 0.000000 0.000000 0.000000 -2.962306 0.254622 -10.065241 1.371536 -0.406124 4.813450 -3.189650 -6.905739 7.314121 0.000000 0.000000 0.000000 0.466837 -1.219262 13.600143 -0.603434 0.016788 0.805898 3.648901 2.319023 9.401935 1.622810 2.758320 -19.064804 0.000000 0.000000 0.000000 -21.661944 -17.763166 1.128128 -48.606363 -17.829520 2.701982 -22.723718 -50.122522 9.017117 0.000000 0.000000 0.000000 23.087834 15.950841 14.555536 52.541628 30.823741 6.791611 -5.789818 65.472058 4.002296 0.000000 0.000000 0.000000 
